# xmcd
#
# Track frame offsets: 
#        150
#        18585
#        44074
#        64115
#        82240
#        97625
#        114183
#        130623
#        151755
#        168632
#        182961
#
# Disc length: 2621 seconds
#
# Revision: 0
# Processed by: cddbd v1.5.2PL0 Copyright (c) Steve Scherf et al.
# Submitted via: ExactAudioCopy v0.99pb4
#
DISCID=890a3b0b
DTITLE=Isin Karaca - Ey Askin Guzel Kizi
DYEAR=2015
DGENRE=
TTITLE0=Bir Garip Yolcuyum
TTITLE1=Ah Bu Sarkilarin
TTITLE2=Bir Ilkbahar Sabahi
TTITLE3=Affetmem Asla Seni
TTITLE4=Intizar
TTITLE5=Senede Bir Gun
TTITLE6=Gunduzum Seninle Gecem Seninle
TTITLE7=Seni Ben Ellerin Olsun Diye mi Sevdim
TTITLE8=Biz Ayrilamayiz
TTITLE9=Icin Icin Yaniyor
TTITLE10=Adini Anmayacagim
EXTD=
EXTT0=
EXTT1=
EXTT2=
EXTT3=
EXTT4=
EXTT5=
EXTT6=
EXTT7=
EXTT8=
EXTT9=
EXTT10=
PLAYORDER=
